<svg display="none" xmlns="http://www.w3.org/2000/svg">
    <symbol id="heart" viewBox="0 0 16 15">
        <path d="M1.89453 8.73852L7.18848 13.6838C7.64551 14.1086 8.35449 14.1086 8.81152 13.6838L14.1055 8.74145C14.9961 7.91235 15.5 6.57349 15.5 5.35767V5.18774C15.5 2.87622 13.6279 0.998291 11.3135 0.998291C10.2031 0.998291 9.13672 1.43774 8.35156 2.22583L8 2.57739L7.64844 2.22583C6.01367 0.588135 3.3623 0.588135 1.72754 2.22583C0.939453 3.01099 0.5 4.07739 0.5 5.18774V5.35767C0.5 6.57349 1.00391 7.91235 1.89453 8.73852Z" fill="white"/>
    </symbol>
    <symbol id="quotes" viewBox="0 0 80 80">
        <g opacity="0.1">
            <path d="M79.9808 24.5133C79.9808 24.5046 79.9818 24.496 79.9818 24.4873C79.9818 13.9696 71.4558 5.4436 60.9381 5.4436C50.4204 5.4436 41.8945 13.9695 41.8945 24.4873C41.8945 35.0051 50.4214 43.531 60.9382 43.531C63.0998 43.531 65.1689 43.1542 67.1049 42.4903C62.8204 67.0693 43.6534 82.9202 61.421 69.8745C81.1228 55.4084 80.0029 25.0684 79.9808 24.5133Z" fill="#E9138D"/>
            <path d="M19.0437 43.5309C21.2053 43.5309 23.2744 43.154 25.2114 42.4902C20.9257 67.0691 1.75875 82.92 19.5265 69.8744C39.2283 55.4084 38.1085 25.0684 38.0863 24.5133C38.0863 24.5046 38.0873 24.496 38.0873 24.4873C38.0873 13.9696 29.5614 5.4436 19.0437 5.4436C8.52588 5.4436 0 13.9695 0 24.4873C0 35.0051 8.52682 43.5309 19.0437 43.5309Z" fill="#E9138D"/>
        </g>
    </symbol>
    <symbol id="twitter" viewBox="0 0 29 24">
        <path d="M0.508517 11.5198L7.17576 13.8784L9.77483 21.8119C9.88783 22.348 10.5659 22.4552 11.0179 22.1335L14.747 19.2389C15.086 18.9173 15.651 18.9173 16.103 19.2389L22.7703 23.8489C23.2223 24.1705 23.9003 23.9561 24.0133 23.42L28.9855 0.90608C29.0985 0.370033 28.5334 -0.166009 27.9684 0.0484099L0.508517 10.1261C-0.169506 10.3405 -0.169506 11.3054 0.508517 11.5198ZM9.43583 12.6991L22.5442 5.08725C22.7702 4.98004 22.9963 5.30167 22.7703 5.40888L12.0349 14.9505C11.6959 15.2721 11.3569 15.701 11.3569 16.237L11.0179 18.81C11.0179 19.1317 10.4529 19.2389 10.3398 18.81L8.98379 14.0928C8.64478 13.5568 8.87082 12.9135 9.43583 12.6991Z" fill="#36A1D4"/>
    </symbol>
</svg>